<svg xmlns="http://www.w3.org/2000/svg" width="559" height="151" fill="none"><path fill="#1C254A" d="M160.854 137.985c6.973-4.421 11.904-9.693 14.455-15.645s3.741-14.626 3.741-25.85V39.747l-10.543-7.142v-3.742h42.515v3.742l-10.544 7.142V90.37c0 28.57-7.652 46.086-37.583 52.208l-2.041-4.592Zm130.433-45.52c-3.401.17-8.843.17-16.326.17-11.394 0-24.148-.34-38.093-.85 1.871 19.046 12.244 30.1 29.251 30.1 10.203 0 16.835-2.551 22.447-7.313l3.571 2.721c-5.612 13.435-18.196 20.747-34.522 20.747-24.998 0-41.834-17.176-41.834-43.365 0-24.999 16.666-44.385 42.005-44.385 11.733 0 20.577 3.74 26.869 11.054 6.292 7.312 9.353 16.835 9.182 28.57l-2.55 2.55Zm-54.759-8.673 35.713-2.211c-1.871-14.966-8.844-22.108-18.197-22.108-10.204 0-17.006 10.034-17.516 24.319Zm164.955 48.466V136h-41.494v-3.742l10.373-7.142V87.703c0-14.795-6.292-21.768-17.346-21.768-6.292 0-12.754 2.211-19.387 6.463v52.718l10.374 7.142V136h-41.665v-3.742l10.544-7.142v-59.18l-10.544-6.293v-3.741l28.23-5.612 3.061 2.04v11.904c7.313-9.013 17.687-13.944 27.38-13.944 19.217 0 30.101 13.775 30.101 34.862v39.964l10.373 7.142Zm107.134 0V136h-41.495v-3.742l10.374-7.142V87.703c0-14.795-6.292-21.768-17.346-21.768-6.293 0-12.755 2.211-19.387 6.463v52.718l10.373 7.142V136h-41.664v-3.742l10.543-7.142v-59.18l-10.543-6.293v-3.741l28.23-5.612 3.061 2.04v11.904c7.313-9.013 17.686-13.944 27.379-13.944 19.217 0 30.101 13.775 30.101 34.862v39.964l10.374 7.142Zm7.988 0 10.544-7.142v-59.18l-10.544-6.293v-3.741l28.229-5.612 3.062 2.04v72.786l10.374 7.142V136h-41.665v-3.742Zm6.462-107.137c0-6.802 5.782-12.074 13.095-12.074 7.993 0 13.605 5.271 13.605 12.074 0 6.633-5.612 11.564-13.605 11.564-7.483 0-13.095-4.932-13.095-11.564Z"/><path fill="#323DD6" d="M75.747 136.885c-6.141-18.563 8.147-45.188 10.763-50.464l-55.5-18.849C28.564 52.459 28.15 24.325 33.44.946l82.021 27.861c-4.741 32.822.278 69.975.353 88.779.169 42.643-33.588 38.891-40.067 19.299Z"/><path fill="#649BE8" d="M15.523 124.247c-20.427-7.095-17.645-36.697-2.668-56.25l64.971 22.045c-.554 1.18-17.539 33.266-5.67 53.81l-56.633-19.605Z"/></svg>